<?xml version="1.0" ?><svg enable-background="new 0 0 64 64" height="64px" id="Layer_1" version="1.1" viewBox="0 0 64 64" width="64px" xml:space="preserve" xmlns="http://www.w3.org/2000/svg" xmlns:xlink="http://www.w3.org/1999/xlink"><circle cx="32" cy="32" fill="#77B3D4" r="32"/><circle cx="32" cy="33.917" fill="#231F20" opacity="0.2" r="13.083"/><circle cx="32" cy="33.083" fill="#4F5D73" r="13.083"/><circle cx="32" cy="32" fill="#4F5D73" r="13.083"/><g opacity="0.2"><path d="M32,12c-12.15,0-22,9.85-22,22s9.85,22,22,22c12.15,0,22-9.85,22-22S44.15,12,32,12z M14.5,30.5   c0-3.038,2.462-5.5,5.5-5.5c3.037,0,5.5,2.462,5.5,5.5c0,3.037-2.463,5.5-5.5,5.5C16.962,36,14.5,33.537,14.5,30.5z M24.469,49.5   c-3.038,0-5.5-2.463-5.5-5.5c0-3.038,2.462-5.5,5.5-5.5c3.038,0,5.5,2.462,5.5,5.5C29.969,47.037,27.506,49.5,24.469,49.5z    M26.5,21.5c0-3.038,2.462-5.5,5.5-5.5c3.037,0,5.5,2.462,5.5,5.5c0,3.038-2.463,5.5-5.5,5.5C28.962,27,26.5,24.538,26.5,21.5z    M39.469,49.5c-3.038,0-5.5-2.463-5.5-5.5c0-3.038,2.462-5.5,5.5-5.5c3.038,0,5.5,2.462,5.5,5.5   C44.969,47.037,42.506,49.5,39.469,49.5z M44.042,36c-3.038,0-5.5-2.463-5.5-5.5c0-3.038,2.462-5.5,5.5-5.5   c3.037,0,5.5,2.462,5.5,5.5C49.542,33.537,47.079,36,44.042,36z" fill="#231F20"/></g><g><path d="M32,10c-12.15,0-22,9.85-22,22s9.85,22,22,22c12.15,0,22-9.85,22-22S44.15,10,32,10z M14.5,28.5   c0-3.038,2.462-5.5,5.5-5.5c3.037,0,5.5,2.462,5.5,5.5c0,3.038-2.463,5.5-5.5,5.5C16.962,34,14.5,31.538,14.5,28.5z M24.469,47.5   c-3.038,0-5.5-2.463-5.5-5.5c0-3.038,2.462-5.5,5.5-5.5c3.038,0,5.5,2.462,5.5,5.5C29.969,45.037,27.506,47.5,24.469,47.5z    M26.5,19.5c0-3.038,2.462-5.5,5.5-5.5c3.037,0,5.5,2.462,5.5,5.5c0,3.038-2.463,5.5-5.5,5.5C28.962,25,26.5,22.538,26.5,19.5z    M39.469,47.5c-3.038,0-5.5-2.463-5.5-5.5c0-3.038,2.462-5.5,5.5-5.5c3.038,0,5.5,2.462,5.5,5.5   C44.969,45.037,42.506,47.5,39.469,47.5z M44.042,34c-3.038,0-5.5-2.462-5.5-5.5c0-3.038,2.462-5.5,5.5-5.5   c3.037,0,5.5,2.462,5.5,5.5C49.542,31.538,47.079,34,44.042,34z" fill="#FFFFFF"/></g></svg>